<?xml version="1.0" encoding="UTF-8" standalone="no"?>
<!DOCTYPE svg PUBLIC "-//W3C//DTD SVG 1.1//EN"
 "http://www.w3.org/Graphics/SVG/1.1/DTD/svg11.dtd">
<!-- Generated by graphviz version 2.30.1 (20150306.0020)
 -->
<!-- Title: G Pages: 1 -->
<svg width="542pt" height="498pt"
 viewBox="0.00 0.00 542.00 498.00" xmlns="http://www.w3.org/2000/svg" xmlns:xlink="http://www.w3.org/1999/xlink">
<g id="graph0" class="graph" transform="scale(1 1) rotate(0) translate(4 494)">
<title>G</title>
<polygon fill="white" stroke="white" points="-4,5 -4,-494 539,-494 539,5 -4,5"/>
<g id="clust1" class="cluster"><title>cluster_Global</title>
<path fill="none" stroke="gray" d="M278,-8C278,-8 514,-8 514,-8 520,-8 526,-14 526,-20 526,-20 526,-470 526,-470 526,-476 520,-482 514,-482 514,-482 278,-482 278,-482 272,-482 266,-476 266,-470 266,-470 266,-20 266,-20 266,-14 272,-8 278,-8"/>
<text text-anchor="middle" x="396" y="-469.2" font-family="Times,serif" font-size="11.00" fill="gray">Global</text>
</g>
<g id="clust2" class="cluster"><title>cluster_\PluginSystem</title>
<path fill="none" stroke="gray" d="M286,-16C286,-16 506,-16 506,-16 512,-16 518,-22 518,-28 518,-28 518,-442 518,-442 518,-448 512,-454 506,-454 506,-454 286,-454 286,-454 280,-454 274,-448 274,-442 274,-442 274,-28 274,-28 274,-22 280,-16 286,-16"/>
<text text-anchor="middle" x="396" y="-441.2" font-family="Times,serif" font-size="11.00" fill="gray">PluginSystem</text>
</g>
<g id="clust3" class="cluster"><title>cluster_\PluginSystem\Lib</title>
<path fill="none" stroke="gray" d="M351,-354C351,-354 441,-354 441,-354 447,-354 453,-360 453,-366 453,-366 453,-414 453,-414 453,-420 447,-426 441,-426 441,-426 351,-426 351,-426 345,-426 339,-420 339,-414 339,-414 339,-366 339,-366 339,-360 345,-354 351,-354"/>
<text text-anchor="middle" x="396" y="-413.2" font-family="Times,serif" font-size="11.00" fill="gray">Lib</text>
</g>
<g id="clust4" class="cluster"><title>cluster_\PluginSystem\Controller</title>
<path fill="none" stroke="gray" d="M294,-220C294,-220 498,-220 498,-220 504,-220 510,-226 510,-232 510,-232 510,-334 510,-334 510,-340 504,-346 498,-346 498,-346 294,-346 294,-346 288,-346 282,-340 282,-334 282,-334 282,-232 282,-232 282,-226 288,-220 294,-220"/>
<text text-anchor="middle" x="396" y="-333.2" font-family="Times,serif" font-size="11.00" fill="gray">Controller</text>
</g>
<g id="clust7" class="cluster"><title>cluster_\PluginSystem\Model</title>
<path fill="none" stroke="gray" d="M302,-24C302,-24 490,-24 490,-24 496,-24 502,-30 502,-36 502,-36 502,-200 502,-200 502,-206 496,-212 490,-212 490,-212 302,-212 302,-212 296,-212 290,-206 290,-200 290,-200 290,-36 290,-36 290,-30 296,-24 302,-24"/>
<text text-anchor="middle" x="396" y="-199.2" font-family="Times,serif" font-size="11.00" fill="gray">Model</text>
</g>
<g id="clust8" class="cluster"><title>cluster_\PluginSystem\Model\Table</title>
<path fill="none" stroke="gray" d="M310,-112C310,-112 482,-112 482,-112 488,-112 494,-118 494,-124 494,-124 494,-172 494,-172 494,-178 488,-184 482,-184 482,-184 310,-184 310,-184 304,-184 298,-178 298,-172 298,-172 298,-124 298,-124 298,-118 304,-112 310,-112"/>
<text text-anchor="middle" x="396" y="-171.2" font-family="Times,serif" font-size="11.00" fill="gray">Table</text>
</g>
<g id="clust9" class="cluster"><title>cluster_\PluginSystem\Model\Entity</title>
<path fill="none" stroke="gray" d="M331,-32C331,-32 461,-32 461,-32 467,-32 473,-38 473,-44 473,-44 473,-92 473,-92 473,-98 467,-104 461,-104 461,-104 331,-104 331,-104 325,-104 319,-98 319,-92 319,-92 319,-44 319,-44 319,-38 325,-32 331,-32"/>
<text text-anchor="middle" x="396" y="-91.2" font-family="Times,serif" font-size="11.00" fill="gray">Entity</text>
</g>
<!-- \\PluginSystem\\Lib\\PluginSystem -->
<g id="node1" class="node"><title>\\PluginSystem\\Lib\\PluginSystem</title>
<polygon fill="none" stroke="black" points="445,-398 347,-398 347,-362 445,-362 445,-398"/>
<text text-anchor="middle" x="396" y="-377.2" font-family="Courier,monospace" font-size="11.00">PluginSystem</text>
</g>
<!-- \\PluginSystem\\Controller\\PluginSystemPluginsController -->
<g id="node2" class="node"><title>\\PluginSystem\\Controller\\PluginSystemPluginsController</title>
<polygon fill="none" stroke="black" points="502,-318 290,-318 290,-282 502,-282 502,-318"/>
<text text-anchor="middle" x="396" y="-297.2" font-family="Courier,monospace" font-size="11.00">PluginSystemPluginsController</text>
</g>
<!-- \\Cake\\Controller\\Controller -->
<g id="node6" class="node"><title>\\Cake\\Controller\\Controller</title>
<ellipse fill="none" stroke="black" cx="109" cy="-273" rx="108.581" ry="18"/>
<text text-anchor="middle" x="109" y="-269.3" font-family="Times,serif" font-size="14.00" fill="gray">\Cake\Controller\Controller</text>
</g>
<!-- \\PluginSystem\\Controller\\PluginSystemPluginsController&#45;&gt;\\Cake\\Controller\\Controller -->
<g id="edge1" class="edge"><title>\\PluginSystem\\Controller\\PluginSystemPluginsController&#45;&gt;\\Cake\\Controller\\Controller</title>
<path fill="none" stroke="black" d="M289.686,-290.023C264.879,-287.673 238.456,-285.169 213.72,-282.826"/>
<polygon fill="none" stroke="black" points="213.886,-279.326 203.6,-281.867 213.226,-286.295 213.886,-279.326"/>
</g>
<!-- \\PluginSystem\\Controller\\AppController -->
<g id="node3" class="node"><title>\\PluginSystem\\Controller\\AppController</title>
<polygon fill="none" stroke="black" points="448,-264 344,-264 344,-228 448,-228 448,-264"/>
<text text-anchor="middle" x="396" y="-243.2" font-family="Courier,monospace" font-size="11.00">AppController</text>
</g>
<!-- \\PluginSystem\\Controller\\AppController&#45;&gt;\\Cake\\Controller\\Controller -->
<g id="edge2" class="edge"><title>\\PluginSystem\\Controller\\AppController&#45;&gt;\\Cake\\Controller\\Controller</title>
<path fill="none" stroke="black" d="M343.719,-250.858C307.59,-254.281 257.965,-258.982 213.733,-263.173"/>
<polygon fill="none" stroke="black" points="213.129,-259.714 203.504,-264.142 213.789,-266.683 213.129,-259.714"/>
</g>
<!-- \\PluginSystem\\Model\\Table\\PluginSystemPluginsTable -->
<g id="node4" class="node"><title>\\PluginSystem\\Model\\Table\\PluginSystemPluginsTable</title>
<polygon fill="none" stroke="black" points="485.5,-156 306.5,-156 306.5,-120 485.5,-120 485.5,-156"/>
<text text-anchor="middle" x="396" y="-135.2" font-family="Courier,monospace" font-size="11.00">PluginSystemPluginsTable</text>
</g>
<!-- \\Cake\\ORM\\Table -->
<g id="node7" class="node"><title>\\Cake\\ORM\\Table</title>
<ellipse fill="none" stroke="black" cx="109" cy="-138" rx="76.8869" ry="18"/>
<text text-anchor="middle" x="109" y="-134.3" font-family="Times,serif" font-size="14.00" fill="gray">\Cake\ORM\Table</text>
</g>
<!-- \\PluginSystem\\Model\\Table\\PluginSystemPluginsTable&#45;&gt;\\Cake\\ORM\\Table -->
<g id="edge3" class="edge"><title>\\PluginSystem\\Model\\Table\\PluginSystemPluginsTable&#45;&gt;\\Cake\\ORM\\Table</title>
<path fill="none" stroke="black" d="M306.386,-138C271.288,-138 231.075,-138 196.215,-138"/>
<polygon fill="none" stroke="black" points="196.059,-134.5 186.059,-138 196.059,-141.5 196.059,-134.5"/>
</g>
<!-- \\PluginSystem\\Model\\Entity\\PluginSystemPlugin -->
<g id="node5" class="node"><title>\\PluginSystem\\Model\\Entity\\PluginSystemPlugin</title>
<polygon fill="none" stroke="black" points="465,-76 327,-76 327,-40 465,-40 465,-76"/>
<text text-anchor="middle" x="396" y="-55.2" font-family="Courier,monospace" font-size="11.00">PluginSystemPlugin</text>
</g>
<!-- \\Cake\\ORM\\Entity -->
<g id="node8" class="node"><title>\\Cake\\ORM\\Entity</title>
<ellipse fill="none" stroke="black" cx="109" cy="-58" rx="77.9862" ry="18"/>
<text text-anchor="middle" x="109" y="-54.3" font-family="Times,serif" font-size="14.00" fill="gray">\Cake\ORM\Entity</text>
</g>
<!-- \\PluginSystem\\Model\\Entity\\PluginSystemPlugin&#45;&gt;\\Cake\\ORM\\Entity -->
<g id="edge4" class="edge"><title>\\PluginSystem\\Model\\Entity\\PluginSystemPlugin&#45;&gt;\\Cake\\ORM\\Entity</title>
<path fill="none" stroke="black" d="M326.735,-58C287.865,-58 238.771,-58 197.141,-58"/>
<polygon fill="none" stroke="black" points="197.006,-54.5001 187.006,-58 197.005,-61.5001 197.006,-54.5001"/>
</g>
</g>
</svg>
